<svg width="42" height="43" viewBox="0 0 42 43" fill="none" xmlns="http://www.w3.org/2000/svg">
<path fill-rule="evenodd" clip-rule="evenodd" d="M14.75 12.5417C14.75 8.9811 17.5648 6.125 21 6.125C24.4352 6.125 27.25 8.9811 27.25 12.5417C27.25 16.1022 24.4352 18.9583 21 18.9583C17.5648 18.9583 14.75 16.1022 14.75 12.5417ZM21 4.625C16.7033 4.625 13.25 8.18615 13.25 12.5417C13.25 16.8972 16.7033 20.4583 21 20.4583C25.2967 20.4583 28.75 16.8972 28.75 12.5417C28.75 8.18615 25.2967 4.625 21 4.625ZM9.5 32.8472C9.5 29.9281 11.7447 27.625 14.4375 27.625H27.5625C30.2553 27.625 32.5 29.9281 32.5 32.8472V35.0833H9.5V32.8472ZM14.4375 26.125C10.8481 26.125 8 29.1696 8 32.8472V35.8333C8 36.2475 8.33579 36.5833 8.75 36.5833H33.25C33.6642 36.5833 34 36.2475 34 35.8333V32.8472C34 29.1696 31.1519 26.125 27.5625 26.125H14.4375Z" fill="black"/>
</svg>
